<?xml version="1.0" standalone="no"?>
<!DOCTYPE svg PUBLIC "-//W3C//DTD SVG 20010904//EN"
 "http://www.w3.org/TR/2001/REC-SVG-20010904/DTD/svg10.dtd">
<svg version="1.0" xmlns="http://www.w3.org/2000/svg"
 width="300.000000pt" height="300.000000pt" viewBox="0 0 300.000000 300.000000"
 preserveAspectRatio="xMidYMid meet">
<metadata>
Created by potrace 1.11, written by Peter Selinger 2001-2013
</metadata>
<g transform="translate(0.000000,300.000000) scale(0.100000,-0.100000)"
fill="#000000" stroke="none">
<path d="M1462 2597 c-21 -22 -22 -34 -24 -183 -1 -87 2 -169 6 -182 17 -51
98 -53 120 -2 10 24 12 120 7 327 -1 28 -38 63 -66 63 -12 0 -31 -10 -43 -23z"/>
<path d="M823 2475 c-18 -8 -34 -20 -34 -27 -5 -52 1 -65 129 -273 39 -63 69
-80 110 -62 22 10 39 48 33 77 -5 23 -153 263 -175 283 -23 20 -22 20 -63 2z"/>
<path d="M2109 2476 c-12 -6 -59 -73 -105 -150 -68 -111 -83 -143 -78 -165 8
-32 23 -49 49 -52 41 -6 63 13 114 99 29 48 65 107 80 132 41 67 43 86 16 119
-26 30 -43 34 -76 17z"/>
<path d="M210 2068 c-25 -27 -26 -70 -2 -90 39 -35 282 -168 306 -168 13 0 32
7 40 16 21 21 20 77 -1 96 -25 20 -212 128 -224 128 -5 0 -9 4 -9 8 0 8 -58
32 -78 32 -6 0 -20 -10 -32 -22z"/>
<path d="M2598 2001 c-171 -98 -189 -118 -151 -169 11 -15 30 -28 41 -30 21
-3 143 55 150 70 2 5 8 8 14 8 18 0 149 83 158 101 23 42 5 85 -42 102 -11 4
-73 -26 -170 -82z"/>
<path d="M1044 1842 c-13 -2 -25 -14 -31 -35 -6 -18 -29 -84 -52 -147 -23 -63
-43 -122 -45 -130 -4 -15 -86 -246 -112 -313 -21 -55 -19 -58 34 -57 26 1 346
1 711 1 366 -1 666 1 668 3 5 5 -256 658 -268 670 -8 9 -849 16 -905 8z"/>
<path d="M244 1041 c-3 -9 -26 -72 -49 -141 -24 -69 -71 -204 -105 -300 -34
-96 -66 -187 -70 -202 l-9 -28 719 0 719 0 -20 48 c-11 26 -24 56 -29 67 -5
11 -57 144 -117 295 l-108 275 -462 1 c-414 1 -463 -1 -469 -15z"/>
<path d="M1715 806 c-48 -138 -103 -293 -121 -343 l-33 -93 719 0 c681 0 719
1 714 18 -7 19 -15 41 -37 92 -8 19 -36 89 -62 155 -59 152 -59 151 -84 207
-12 26 -21 52 -21 58 0 6 -4 18 -9 28 -5 9 -20 42 -32 73 l-23 55 -462 1 -461
1 -88 -252z"/>
</g>
</svg>
